<svg width="841" height="235" viewBox="0 0 841 235" fill="none" xmlns="http://www.w3.org/2000/svg">
<g clip-path="url(#clip0)">
<path d="M819.89 120.85C816.619 120.776 813.374 121.44 810.394 122.792C807.415 124.144 804.778 126.15 802.68 128.66C799.11 123.3 793.28 120.85 786.61 120.85C783.92 120.777 781.243 121.248 778.74 122.235C776.236 123.221 773.958 124.702 772.04 126.59V121.79H751.78V173.21H773.02V148.15C773.02 141.29 775.94 138.75 779.7 138.75C783.27 138.75 785.43 141.2 785.43 147.59V173.25H806.68V148.15C806.68 141.29 809.59 138.75 813.35 138.75C816.73 138.75 819.08 141.2 819.08 147.59V173.25H840.33V143.88C840.33 127.72 831.49 120.88 819.84 120.88L819.89 120.85ZM718.16 157.61C713.46 157.61 709.8 154.13 709.8 147.46C709.8 140.79 713.46 137.4 718.16 137.4C722.86 137.4 726.53 140.78 726.53 147.46C726.53 154.14 722.89 157.61 718.16 157.61ZM718.16 174.15C735.65 174.15 748.06 163.06 748.06 147.46C748.06 131.86 735.65 120.85 718.16 120.85C700.67 120.85 688.27 131.85 688.27 147.46C688.27 163.07 700.77 174.15 718.16 174.15ZM664.24 174.15C676.75 174.15 686.15 168.42 689.53 158.93L673.08 150.84C670.92 155.64 667.82 157.61 664.15 157.61C659.36 157.61 655.41 154.23 655.41 147.46C655.41 140.69 659.41 137.4 664.15 137.4C667.82 137.4 670.92 139.4 673.08 144.17L689.53 136.08C686.15 126.59 676.75 120.85 664.24 120.85C646.48 120.85 633.88 131.85 633.88 147.46C633.88 163.07 646.48 174.15 664.24 174.15ZM620.57 174.15C627.62 174.15 632.98 169.08 632.98 161.93C632.98 154.78 627.62 149.93 620.57 149.93C613.52 149.93 608.16 154.73 608.16 161.93C608.16 169.13 613.52 174.15 620.57 174.15V174.15ZM212.18 120.85C209.325 120.766 206.483 121.253 203.819 122.283C201.155 123.314 198.725 124.866 196.67 126.85V121.77H176.45V173.19H197.7V149.05C197.7 141.44 201.37 138.71 205.7 138.71C209.55 138.71 212 141.16 212 147.55V173.21H233.24V143.88C233.23 127.72 224.02 120.85 212.18 120.85ZM148.76 173.21H170.01V121.79H148.76V173.21ZM129.21 118.6C130.879 118.66 132.515 119.076 134.01 119.82L139.08 105.06C135.98 103.37 131 102.52 126.48 102.52C111.82 102.52 103.55 111.08 103.55 124.33V124.61H96.5V140.15H103.55V173.24H124.79V140.15H135.32V124.61H124.13V124.52C124.13 120.38 126.2 118.6 129.21 118.6ZM159.39 117.66C167.19 117.66 172.17 112.96 172.17 106.47C172.17 100.36 167.17 96.04 159.39 96.04C151.61 96.04 146.6 100.74 146.6 106.85C146.6 112.96 151.58 117.66 159.39 117.66Z" fill="#3544EE"/>
<path d="M584.01 122.83C574.89 122.83 568.21 126.49 565.01 134.83C562.66 127.22 556.55 122.83 547.62 122.83C539.34 122.83 532.95 125.83 529.47 132.89V123.2H518.77V173.2H529.48V148.49C529.48 139.75 534.75 133.17 543.4 132.89C550.73 132.89 555.15 137.49 555.15 145.11V173.21H565.96V148.49C565.96 139.75 571.13 133.17 579.68 132.89C587.02 132.89 591.53 137.49 591.53 145.11V173.21H602.34V142.15C602.34 130.21 595.48 122.88 584.01 122.88V122.83ZM484.01 132.18C492.94 132.18 499.24 138.76 499.24 148.35C499.24 157.94 492.94 164.62 484.01 164.62C475.08 164.62 468.69 158.04 468.69 148.35C468.69 138.66 474.96 132.15 483.99 132.15L484.01 132.18ZM484.01 122.88C468.5 122.88 457.87 133.12 457.87 148.26C457.87 163.4 468.5 173.64 484.01 173.64C499.52 173.64 510.01 163.3 510.01 148.26C510.01 133.22 499.41 122.83 483.99 122.83L484.01 122.88ZM432.01 122.88C423.55 122.88 417.15 125.88 413.58 132.88V123.29H402.77V173.29H413.58V146.69C414.33 138.89 419.5 133.15 427.78 133.06C435.3 133.06 439.78 137.67 439.78 145.19V173.29H450.59V142.15C450.62 130.15 443.66 122.83 432.01 122.83V122.88ZM368.01 132.18C376.94 132.18 383.24 138.76 383.24 148.35C383.24 157.94 376.94 164.62 368.01 164.62C359.08 164.62 352.69 158.04 352.69 148.35C352.69 138.66 358.97 132.15 367.99 132.15L368.01 132.18ZM368.01 122.88C352.5 122.88 341.88 133.12 341.88 148.26C341.88 163.4 352.5 173.64 368.01 173.64C383.52 173.64 394.01 163.3 394.01 148.26C394.01 133.22 383.41 122.83 367.99 122.83L368.01 122.88ZM315.28 150.33L329.89 173.21H342.68L322.75 142.57L341.27 123.2H328.89L306.8 145.58V103.46H295.99V173.21H306.8V159.21L315.28 150.33ZM248.82 144.5C250.04 136.5 255.59 131.5 263.48 131.5C271.66 131.5 277.02 136.38 277.4 144.5H248.82ZM263.39 122.88C248.54 122.97 238.1 133.22 238.1 148.35C238.1 163.48 248.25 173.64 263.67 173.64C272.32 173.64 279.46 170.54 284.35 165.18L278.62 159.07C276.784 160.942 274.589 162.423 272.166 163.425C269.742 164.427 267.142 164.929 264.52 164.9C256.62 164.9 250.7 160.1 249.01 152.4H286.8C288.09 134.3 280.95 122.83 263.37 122.83L263.39 122.88Z" fill="#737690"/>
<path fill-rule="evenodd" clip-rule="evenodd" d="M118.31 -3.05176e-05C119.25 -3.05176e-05 120.19 -3.05176e-05 121.13 -3.05176e-05L107.21 41.87C51.67 49.22 8.28004 95.24 4.74004 152.11C1.58786 141.267 -0.00809214 130.032 3.08518e-05 118.74C3.08518e-05 53.14 53 -0.0400391 118.31 -0.0400391" fill="#3544EE"/>
<path fill-rule="evenodd" clip-rule="evenodd" d="M85.17 53.03L87.77 90.63C38.94 112.18 15.77 158.36 33.63 200.81C25.703 193.055 19.6229 183.615 15.8405 173.191C12.0581 162.766 10.6703 151.624 11.78 140.59C15.1465 120.797 23.7178 102.256 36.6147 86.8691C49.5116 71.4821 66.2698 59.803 85.17 53.03" fill="#737690"/>
<path fill-rule="evenodd" clip-rule="evenodd" d="M128.59 233.01C109.142 236.239 89.1733 232.759 71.9643 223.14C54.7554 213.522 41.3289 198.337 33.8899 180.08C33.1767 174.459 33.1767 168.771 33.8899 163.15C39.4008 183.242 51.3581 200.967 67.9238 213.601C84.4894 226.236 104.746 233.079 125.58 233.08C126.58 233.08 127.58 233.08 128.64 233.08" fill="#B4B6C4"/>
</g>
<defs>
<clipPath id="clip0">
<rect width="840.33" height="234.19" fill="white"/>
</clipPath>
</defs>
</svg>
