<svg width="412" height="530" viewBox="0 0 412 530" fill="none" xmlns="http://www.w3.org/2000/svg">
<path d="M349.235 299.889C346.869 299.889 344.88 301.782 344.88 304.149C344.88 306.516 346.774 308.504 349.141 308.504C351.508 308.504 353.496 306.611 353.496 304.244C353.496 301.782 351.602 299.889 349.235 299.889Z" fill="#00B533"/>
<path d="M312.975 304.622C311.744 304.622 310.797 305.569 310.797 306.8C310.797 308.03 311.744 308.977 312.975 308.977C314.206 308.977 315.152 308.03 315.152 306.8C315.152 305.569 314.206 304.622 312.975 304.622Z" fill="#00B533"/>
<path d="M357.283 264.765C356.053 264.765 355.106 265.711 355.106 266.942C355.106 268.173 356.053 269.12 357.283 269.12C358.514 269.12 359.461 268.173 359.461 266.942C359.461 265.806 358.42 264.859 357.283 264.765Z" fill="#00B533"/>
<path d="M383.319 301.024C382.088 301.024 381.142 301.971 381.142 303.202C381.142 304.433 382.088 305.379 383.319 305.379C384.55 305.379 385.497 304.433 385.497 303.202C385.497 302.066 384.55 301.119 383.319 301.024Z" fill="#00B533"/>
<path d="M317.898 353.001C315.815 354.232 315.153 356.883 316.383 358.871C317.614 360.954 320.265 361.617 322.253 360.386C324.241 359.155 324.904 356.504 323.768 354.516C322.632 352.433 319.981 351.77 317.898 353.001Z" fill="#00B533"/>
<path d="M298.205 324.978C297.164 325.546 296.88 326.871 297.448 327.913C298.016 328.954 299.341 329.238 300.383 328.67C301.424 328.102 301.708 326.777 301.14 325.735C300.572 324.788 299.247 324.41 298.205 324.978Z" fill="#00B533"/>
<path d="M355.107 342.587C354.065 343.155 353.781 344.48 354.349 345.521C354.917 346.563 356.243 346.847 357.284 346.279C358.326 345.711 358.61 344.385 358.041 343.344C357.379 342.303 356.148 341.924 355.107 342.587Z" fill="#00B533"/>
<path d="M337.401 383.582C336.36 384.15 336.076 385.475 336.644 386.517C337.212 387.558 338.537 387.842 339.579 387.274C340.62 386.706 340.904 385.38 340.336 384.339C339.673 383.298 338.348 382.919 337.401 383.582Z" fill="#00B533"/>
<path d="M72.8787 313.237C70.7959 314.468 70.1331 317.119 71.3639 319.107C72.5947 321.095 75.2456 321.853 77.2338 320.622C79.2219 319.391 79.8847 316.74 78.7486 314.752C77.6125 312.669 74.9616 312.007 72.8787 313.237Z" fill="#00B533"/>
<path d="M53.1876 285.308C52.1462 285.876 51.8622 287.202 52.4302 288.243C52.9983 289.285 54.3237 289.569 55.3651 289.001C56.4066 288.432 56.6906 287.107 56.1225 286.066C55.5545 285.024 54.229 284.645 53.1876 285.308Z" fill="#00B533"/>
<path d="M110.087 302.824C109.046 303.392 108.762 304.717 109.33 305.759C109.898 306.8 111.223 307.084 112.265 306.516C113.306 305.948 113.59 304.623 113.022 303.581C112.454 302.54 111.128 302.256 110.087 302.824Z" fill="#00B533"/>
<path d="M92.3834 343.818C91.342 344.481 91.058 345.711 91.626 346.753C92.2887 347.794 93.5195 348.078 94.5609 347.51C95.6024 346.942 95.8864 345.617 95.3183 344.575C94.7503 343.534 93.4248 343.155 92.3834 343.818Z" fill="#00B533"/>
<path d="M32.7381 352.812C30.6552 354.042 29.9925 356.693 31.2233 358.682C32.4541 360.764 35.105 361.427 37.0931 360.196C39.0813 358.966 39.744 356.315 38.6079 354.326C37.4718 352.244 34.8209 351.581 32.7381 352.812Z" fill="#00B533"/>
<path d="M13.045 324.882C12.0036 325.45 11.7196 326.776 12.2876 327.817C12.8557 328.859 14.1811 329.143 15.2226 328.575C16.264 328.007 16.548 326.681 15.98 325.64C15.4119 324.598 14.0865 324.314 13.045 324.882Z" fill="#00B533"/>
<path d="M69.9444 342.398C68.903 343.061 68.619 344.291 69.187 345.333C69.8498 346.374 71.0805 346.658 72.122 346.09C73.1634 345.522 73.4474 344.197 72.8794 343.155C72.3113 342.114 70.9859 341.83 69.9444 342.398Z" fill="#00B533"/>
<path d="M52.2408 383.392C51.1994 383.96 50.9154 385.286 51.4834 386.327C52.0515 387.368 53.3769 387.653 54.4184 387.084C55.4598 386.516 55.7438 385.191 55.1758 384.15C54.6077 383.108 53.2823 382.824 52.2408 383.392Z" fill="#00B533"/>
<path d="M130.252 159.675C128.074 160.716 127.222 163.272 128.263 165.45C129.305 167.627 131.861 168.479 134.039 167.438C136.216 166.397 137.068 163.84 136.027 161.663C134.985 159.485 132.429 158.633 130.252 159.675Z" fill="#00B533"/>
<path d="M162.727 143.391C161.685 143.864 161.212 145.19 161.685 146.231C162.159 147.273 163.484 147.746 164.526 147.273C165.567 146.799 166.04 145.474 165.567 144.432C165.567 144.432 165.567 144.432 165.567 144.338C164.999 143.296 163.768 142.918 162.727 143.391Z" fill="#00B533"/>
<path d="M140.288 189.213C139.247 189.781 138.868 191.012 139.342 192.054C139.815 193.095 141.14 193.568 142.182 193.095C143.223 192.622 143.697 191.296 143.223 190.255C142.75 189.119 141.519 188.645 140.288 189.213C140.383 189.213 140.383 189.119 140.288 189.213Z" fill="#00B533"/>
<path d="M100.999 177.473C99.9574 178.042 99.484 179.272 100.052 180.408C100.62 181.544 101.851 181.923 102.987 181.355C104.123 180.787 104.502 179.556 103.934 178.42C103.366 177.379 102.04 176.905 100.999 177.473Z" fill="#00B533"/>
<path d="M324.999 214.682C322.916 213.545 320.265 214.208 319.129 216.291C317.993 218.374 318.656 221.025 320.739 222.161C322.822 223.297 325.473 222.634 326.609 220.551C327.839 218.469 327.082 215.818 324.999 214.682Z" fill="#00B533"/>
<path d="M291.106 200.953C290.065 200.385 288.739 200.764 288.171 201.805C287.603 202.847 287.982 204.172 289.023 204.74C290.065 205.308 291.39 204.93 291.958 203.888C292.526 202.847 292.147 201.521 291.106 200.953C291.106 200.953 291.201 200.953 291.106 200.953Z" fill="#00B533"/>
<path d="M341.472 193.474C340.431 192.906 339.105 193.284 338.537 194.326C337.969 195.367 338.348 196.693 339.389 197.261C340.431 197.829 341.756 197.45 342.324 196.409C342.892 195.367 342.608 194.042 341.472 193.474C341.567 193.474 341.567 193.474 341.472 193.474Z" fill="#00B533"/>
<path d="M351.981 236.267C353.022 236.835 354.348 236.456 354.916 235.415C355.484 234.373 355.105 233.048 354.064 232.48C353.022 231.912 351.697 232.29 351.129 233.332C350.655 234.373 350.939 235.604 351.981 236.267Z" fill="#00B533"/>
<g opacity="0.3">
<path opacity="0.3" d="M349.235 299.889C346.869 299.889 344.88 301.782 344.88 304.149C344.88 306.516 346.774 308.504 349.141 308.504C351.508 308.504 353.496 306.611 353.496 304.244C353.496 301.782 351.602 299.889 349.235 299.889Z" fill="#00B533"/>
<path opacity="0.3" d="M312.975 304.622C311.744 304.622 310.797 305.569 310.797 306.8C310.797 308.03 311.744 308.977 312.975 308.977C314.206 308.977 315.152 308.03 315.152 306.8C315.152 305.569 314.206 304.622 312.975 304.622Z" fill="#00B533"/>
<path opacity="0.3" d="M357.283 264.765C356.053 264.765 355.106 265.711 355.106 266.942C355.106 268.173 356.053 269.12 357.283 269.12C358.514 269.12 359.461 268.173 359.461 266.942C359.461 265.806 358.42 264.859 357.283 264.765Z" fill="#00B533"/>
<path opacity="0.3" d="M383.319 301.024C382.088 301.024 381.142 301.971 381.142 303.202C381.142 304.433 382.088 305.379 383.319 305.379C384.55 305.379 385.497 304.433 385.497 303.202C385.497 302.066 384.55 301.119 383.319 301.024Z" fill="#00B533"/>
<path opacity="0.3" d="M317.898 353.001C315.815 354.232 315.153 356.883 316.383 358.871C317.614 360.954 320.265 361.617 322.253 360.386C324.241 359.155 324.904 356.504 323.768 354.516C322.632 352.433 319.981 351.77 317.898 353.001Z" fill="#00B533"/>
<path opacity="0.3" d="M298.205 324.978C297.164 325.546 296.88 326.871 297.448 327.913C298.016 328.954 299.341 329.238 300.383 328.67C301.424 328.102 301.708 326.777 301.14 325.735C300.572 324.788 299.247 324.41 298.205 324.978Z" fill="#00B533"/>
<path opacity="0.3" d="M355.107 342.587C354.065 343.155 353.781 344.48 354.349 345.521C354.917 346.563 356.243 346.847 357.284 346.279C358.326 345.711 358.61 344.385 358.041 343.344C357.379 342.303 356.148 341.924 355.107 342.587Z" fill="#00B533"/>
<path opacity="0.3" d="M337.401 383.582C336.36 384.15 336.076 385.475 336.644 386.517C337.212 387.558 338.537 387.842 339.579 387.274C340.62 386.706 340.904 385.38 340.336 384.339C339.673 383.298 338.348 382.919 337.401 383.582Z" fill="#00B533"/>
<path opacity="0.3" d="M72.8787 313.237C70.7959 314.468 70.1331 317.119 71.3639 319.107C72.5947 321.095 75.2456 321.853 77.2338 320.622C79.2219 319.391 79.8847 316.74 78.7486 314.752C77.6125 312.669 74.9616 312.007 72.8787 313.237Z" fill="#00B533"/>
<path opacity="0.3" d="M53.1876 285.308C52.1462 285.876 51.8622 287.202 52.4302 288.243C52.9983 289.285 54.3237 289.569 55.3651 289.001C56.4066 288.432 56.6906 287.107 56.1225 286.066C55.5545 285.024 54.229 284.645 53.1876 285.308Z" fill="#00B533"/>
<path opacity="0.3" d="M110.087 302.824C109.046 303.392 108.762 304.717 109.33 305.759C109.898 306.8 111.223 307.084 112.265 306.516C113.306 305.948 113.59 304.623 113.022 303.581C112.454 302.54 111.128 302.256 110.087 302.824Z" fill="#00B533"/>
<path opacity="0.3" d="M92.3834 343.818C91.342 344.481 91.058 345.711 91.626 346.753C92.2887 347.794 93.5195 348.078 94.5609 347.51C95.6024 346.942 95.8864 345.617 95.3183 344.575C94.7503 343.534 93.4248 343.155 92.3834 343.818Z" fill="#00B533"/>
<path opacity="0.3" d="M32.7381 352.812C30.6552 354.042 29.9925 356.693 31.2233 358.682C32.4541 360.764 35.105 361.427 37.0931 360.196C39.0813 358.966 39.744 356.315 38.6079 354.326C37.4718 352.244 34.8209 351.581 32.7381 352.812Z" fill="#00B533"/>
<path opacity="0.3" d="M13.045 324.882C12.0036 325.45 11.7196 326.776 12.2876 327.817C12.8557 328.859 14.1811 329.143 15.2226 328.575C16.264 328.007 16.548 326.681 15.98 325.64C15.4119 324.598 14.0865 324.314 13.045 324.882Z" fill="#00B533"/>
<path opacity="0.3" d="M69.9444 342.398C68.903 343.061 68.619 344.291 69.187 345.333C69.8498 346.374 71.0805 346.658 72.122 346.09C73.1634 345.522 73.4474 344.197 72.8794 343.155C72.3113 342.114 70.9859 341.83 69.9444 342.398Z" fill="#00B533"/>
<path opacity="0.3" d="M52.2408 383.392C51.1994 383.96 50.9154 385.286 51.4834 386.327C52.0515 387.368 53.3769 387.653 54.4184 387.084C55.4598 386.516 55.7438 385.191 55.1758 384.15C54.6077 383.108 53.2823 382.824 52.2408 383.392Z" fill="#00B533"/>
<path opacity="0.3" d="M130.252 159.675C128.074 160.716 127.222 163.272 128.263 165.45C129.305 167.627 131.861 168.479 134.039 167.438C136.216 166.397 137.068 163.84 136.027 161.663C134.985 159.485 132.429 158.633 130.252 159.675Z" fill="#00B533"/>
<path opacity="0.3" d="M162.727 143.391C161.685 143.864 161.212 145.19 161.685 146.231C162.159 147.273 163.484 147.746 164.526 147.273C165.567 146.799 166.04 145.474 165.567 144.432C165.567 144.432 165.567 144.432 165.567 144.338C164.999 143.296 163.768 142.918 162.727 143.391Z" fill="#00B533"/>
<path opacity="0.3" d="M140.288 189.213C139.247 189.781 138.868 191.012 139.342 192.054C139.815 193.095 141.14 193.568 142.182 193.095C143.223 192.622 143.697 191.296 143.223 190.255C142.75 189.119 141.519 188.645 140.288 189.213C140.383 189.213 140.383 189.119 140.288 189.213Z" fill="#00B533"/>
<path opacity="0.3" d="M100.999 177.473C99.9574 178.042 99.484 179.272 100.052 180.408C100.62 181.544 101.851 181.923 102.987 181.355C104.123 180.787 104.502 179.556 103.934 178.42C103.366 177.379 102.04 176.905 100.999 177.473Z" fill="#00B533"/>
<path opacity="0.3" d="M324.999 214.682C322.916 213.545 320.265 214.208 319.129 216.291C317.993 218.374 318.656 221.025 320.739 222.161C322.822 223.297 325.473 222.634 326.609 220.551C327.839 218.469 327.082 215.818 324.999 214.682Z" fill="#00B533"/>
<path opacity="0.3" d="M291.106 200.953C290.065 200.385 288.739 200.764 288.171 201.805C287.603 202.847 287.982 204.172 289.023 204.74C290.065 205.308 291.39 204.93 291.958 203.888C292.526 202.847 292.147 201.521 291.106 200.953C291.106 200.953 291.201 200.953 291.106 200.953Z" fill="#00B533"/>
<path opacity="0.3" d="M341.472 193.474C340.431 192.906 339.105 193.284 338.537 194.326C337.969 195.367 338.348 196.693 339.389 197.261C340.431 197.829 341.756 197.45 342.324 196.409C342.892 195.367 342.608 194.042 341.472 193.474C341.567 193.474 341.567 193.474 341.472 193.474Z" fill="#00B533"/>
<path opacity="0.3" d="M351.981 236.267C353.022 236.835 354.348 236.456 354.916 235.415C355.484 234.373 355.105 233.048 354.064 232.48C353.022 231.912 351.697 232.29 351.129 233.332C350.655 234.373 350.939 235.604 351.981 236.267Z" fill="#00B533"/>
</g>
<path d="M204.004 261.45C234.227 261.45 258.726 242.334 258.726 218.752C258.726 195.17 234.227 176.054 204.004 176.054C173.782 176.054 149.282 195.17 149.282 218.752C149.282 242.334 173.782 261.45 204.004 261.45Z" fill="#263238" stroke="#263238" stroke-width="1.2419" stroke-linecap="round" stroke-linejoin="round"/>
<path d="M242.537 191.865C250.679 198.965 255.602 208.433 255.602 218.658C255.602 240.906 232.501 258.989 203.909 258.989C175.317 258.989 152.217 240.906 152.217 218.658C152.217 204.74 161.306 192.433 175.033 185.237" fill="#263238"/>
<path d="M242.537 191.865C250.679 198.965 255.602 208.433 255.602 218.658C255.602 240.906 232.501 258.989 203.909 258.989C175.317 258.989 152.217 240.906 152.217 218.658C152.217 204.74 161.306 192.433 175.033 185.237" stroke="white" stroke-width="1.2419" stroke-linecap="round" stroke-linejoin="round"/>
<path d="M181.566 182.397C185.732 180.882 190.087 179.746 194.442 179.083Z" fill="#263238"/>
<path d="M181.566 182.397C185.732 180.882 190.087 179.746 194.442 179.083" stroke="white" stroke-width="1.2419" stroke-linecap="round" stroke-linejoin="round"/>
<path d="M204.005 258.137C252.894 258.137 292.526 244.997 292.526 228.788C292.526 212.579 252.894 199.438 204.005 199.438C155.117 199.438 115.484 212.579 115.484 228.788C115.484 244.997 155.117 258.137 204.005 258.137Z" fill="#00B533" stroke="#263238" stroke-width="1.2419" stroke-linecap="round" stroke-linejoin="round"/>
<path d="M204.004 268.74C273.651 268.74 330.111 255.6 330.111 239.391C330.111 223.182 273.651 210.042 204.004 210.042C134.357 210.042 77.897 223.182 77.897 239.391C77.897 255.6 134.357 268.74 204.004 268.74Z" fill="#00B533" stroke="#263238" stroke-width="1.2419" stroke-linecap="round" stroke-linejoin="round"/>
<path d="M204.005 276.599C284.475 276.599 349.71 263.459 349.71 247.25C349.71 231.04 284.475 217.9 204.005 217.9C123.535 217.9 58.3003 231.04 58.3003 247.25C58.3003 263.459 123.535 276.599 204.005 276.599Z" fill="#263238" stroke="#263238" stroke-width="1.2419" stroke-linecap="round" stroke-linejoin="round"/>
<path d="M204.004 267.794C264.239 267.794 313.069 258.596 313.069 247.25C313.069 235.903 264.239 226.705 204.004 226.705C143.769 226.705 94.9385 235.903 94.9385 247.25C94.9385 258.596 143.769 267.794 204.004 267.794Z" fill="#00B533" stroke="#263238" stroke-width="1.2419" stroke-linecap="round" stroke-linejoin="round"/>
<path opacity="0.6" d="M252.572 247.249H155.436L84.1455 488.007C102.607 504.291 124.288 516.599 147.767 524.079C195.957 539.321 228.903 497.001 273.59 499.368C295.365 500.504 316.667 500.22 335.129 495.676L252.572 247.249Z" fill="white"/>
<path d="M204.004 257.001C230.828 257.001 252.573 252.635 252.573 247.25C252.573 241.864 230.828 237.498 204.004 237.498C177.181 237.498 155.436 241.864 155.436 247.25C155.436 252.635 177.181 257.001 204.004 257.001Z" fill="#263238" stroke="#263238" stroke-width="1.2419" stroke-linecap="round" stroke-linejoin="round"/>
<path d="M204.004 227.652C210.383 227.652 215.554 226.507 215.554 225.095C215.554 223.684 210.383 222.539 204.004 222.539C197.625 222.539 192.454 223.684 192.454 225.095C192.454 226.507 197.625 227.652 204.004 227.652Z" fill="white" stroke="#263238" stroke-width="1.2419" stroke-linecap="round" stroke-linejoin="round"/>
<path d="M96.8331 247.06C96.8331 248.006 93.3301 248.764 88.8804 248.764C84.4307 248.764 80.9277 248.006 80.9277 247.06C80.9277 246.113 84.5254 245.355 88.8804 245.355C93.3301 245.355 96.8331 246.113 96.8331 247.06Z" fill="white" stroke="#263238" stroke-width="1.2419" stroke-linecap="round" stroke-linejoin="round"/>
<path d="M329.354 247.06C329.354 248.006 325.757 248.764 321.401 248.764C317.046 248.764 313.543 248.006 313.543 247.06C313.543 246.113 317.046 245.355 321.496 245.355C325.946 245.355 329.354 246.113 329.354 247.06Z" fill="white" stroke="#263238" stroke-width="1.2419" stroke-linecap="round" stroke-linejoin="round"/>
<path d="M275.484 235.51C281.445 235.51 286.277 234.45 286.277 233.143C286.277 231.836 281.445 230.776 275.484 230.776C269.524 230.776 264.691 231.836 264.691 233.143C264.691 234.45 269.524 235.51 275.484 235.51Z" fill="white" stroke="#263238" stroke-width="1.2419" stroke-linecap="round" stroke-linejoin="round"/>
<path d="M141.046 235.51C147.007 235.51 151.839 234.45 151.839 233.143C151.839 231.836 147.007 230.776 141.046 230.776C135.085 230.776 130.253 231.836 130.253 233.143C130.253 234.45 135.085 235.51 141.046 235.51Z" fill="white" stroke="#263238" stroke-width="1.2419" stroke-linecap="round" stroke-linejoin="round"/>
<path d="M275.484 262.682C279.877 262.682 283.437 261.919 283.437 260.978C283.437 260.036 279.877 259.273 275.484 259.273C271.092 259.273 267.532 260.036 267.532 260.978C267.532 261.919 271.092 262.682 275.484 262.682Z" fill="white" stroke="#263238" stroke-width="1.2419" stroke-linecap="round" stroke-linejoin="round"/>
<path d="M141.046 262.682C145.438 262.682 148.999 261.919 148.999 260.978C148.999 260.036 145.438 259.273 141.046 259.273C136.654 259.273 133.093 260.036 133.093 260.978C133.093 261.919 136.654 262.682 141.046 262.682Z" fill="white" stroke="#263238" stroke-width="1.2419" stroke-linecap="round" stroke-linejoin="round"/>
<path d="M116.336 378.469L113.685 387.652" stroke="#263238" stroke-width="1.2419" stroke-linecap="round" stroke-linejoin="round"/>
<path d="M140.193 296.196L119.081 368.907" stroke="#263238" stroke-width="1.2419" stroke-linecap="round" stroke-linejoin="round"/>
<path d="M153.164 251.604L142.561 288.338" stroke="#263238" stroke-width="1.2419" stroke-linecap="round" stroke-linejoin="round"/>
<path d="M252.572 247.249L298.3 383.013" stroke="#263238" stroke-width="1.2419" stroke-linecap="round" stroke-linejoin="round"/>
<path d="M175.223 259.179L164.619 318.54" stroke="#263238" stroke-width="1.2419" stroke-linecap="round" stroke-linejoin="round"/>
<path d="M239.129 259.179L258.159 364.836" stroke="#263238" stroke-width="1.2419" stroke-linecap="round" stroke-linejoin="round"/>
<path d="M204.005 383.865V396.078" stroke="#263238" stroke-width="1.2419" stroke-linecap="round" stroke-linejoin="round"/>
<path d="M204.005 276.599V372.504" stroke="#263238" stroke-width="1.2419" stroke-linecap="round" stroke-linejoin="round"/>
<path d="M204.005 237.403C194.727 237.403 185.449 237.971 176.17 239.202C178.821 244.788 190.561 248.954 204.573 248.954C218.585 248.954 230.04 244.883 232.881 239.391C223.319 238.066 213.662 237.403 204.005 237.403Z" fill="white" stroke="#263238" stroke-width="1.2419" stroke-miterlimit="10"/>
<g opacity="0.08">
<path opacity="0.08" d="M35.4997 364.999C35.4997 364.999 57.2437 408.163 120.979 411.283C184.705 414.407 255.676 380.039 313.622 353.308C371.568 326.576 404.614 280.471 395.313 241.65C386.012 202.829 338.041 215.001 296.477 186.937C254.914 158.88 251.074 144.537 190.235 145.658C129.398 146.786 58.4252 202.531 36.6673 266.241C14.9095 329.951 35.4997 364.999 35.4997 364.999Z" fill="#00B533"/>
<path opacity="0.7" d="M35.4997 364.999C35.4997 364.999 57.2437 408.163 120.979 411.283C184.705 414.407 255.676 380.039 313.622 353.308C371.568 326.576 404.614 280.471 395.313 241.65C386.012 202.829 338.041 215.001 296.477 186.937C254.914 158.88 251.074 144.537 190.235 145.658C129.398 146.786 58.4252 202.531 36.6673 266.241C14.9095 329.951 35.4997 364.999 35.4997 364.999Z" fill="#00B533"/>
</g>
</svg>
